HIERARCHY
ROOT Hips
{
	OFFSET 0.000000 88.474243 0.000000
	CHANNELS 6 Xposition Yposition Zposition Zrotation Yrotation Xrotation 
	JOINT Hips_Spine
	{
		OFFSET 0.000000 0.000000 0.000000
		CHANNELS 3 Zrotation Yrotation Xrotation
		JOINT Spine
		{
			OFFSET 0.005100 8.711998 -0.691000
			CHANNELS 3 Zrotation Yrotation Xrotation
			JOINT Spine1
			{
				OFFSET -0.009200 8.660301 -1.275000
				CHANNELS 3 Zrotation Yrotation Xrotation
				JOINT Spine2
				{
					OFFSET 0.006300 9.852501 -1.857000
					CHANNELS 3 Zrotation Yrotation Xrotation
					JOINT Spine2_Neck
					{
						OFFSET 0.000000 0.000000 0.000000
						CHANNELS 3 Zrotation Yrotation Xrotation
						JOINT Neck
						{
							OFFSET 0.016300 11.420799 -0.263300
							CHANNELS 3 Zrotation Yrotation Xrotation
							End Site #name: Head
							{
								OFFSET -0.019200 9.262405 2.362500
							}
						}
					}
					JOINT Spine2_LeftShoulder
					{
						OFFSET 0.000000 0.000000 0.000000
						CHANNELS 3 Zrotation Yrotation Xrotation
						JOINT LeftShoulder
						{
							OFFSET 5.616900 6.732201 -0.345700
							CHANNELS 3 Zrotation Yrotation Xrotation
							JOINT LeftArm
							{
								OFFSET 10.664888 -0.183372 -2.440700
								CHANNELS 3 Zrotation Yrotation Xrotation
								JOINT LeftForeArm
								{
									OFFSET 27.459126 0.000000 0.000000
									CHANNELS 3 Zrotation Yrotation Xrotation
									End Site #name: LeftHand
									{
										OFFSET 21.306858 0.000000 0.000000
									}
								}
							}
						}
					}
					JOINT Spine2_RightShoulder
					{
						OFFSET 0.000000 0.000000 0.000000
						CHANNELS 3 Zrotation Yrotation Xrotation
						JOINT RightShoulder
						{
							OFFSET -5.580300 6.737503 -0.344400
							CHANNELS 3 Zrotation Yrotation Xrotation
							JOINT RightArm
							{
								OFFSET -10.679335 -0.188484 -2.383900
								CHANNELS 3 Zrotation Yrotation Xrotation
								JOINT RightForeArm
								{
									OFFSET -27.503529 0.000000 0.000000
									CHANNELS 3 Zrotation Yrotation Xrotation
									End Site #name: RightHand
									{
										OFFSET -21.306808 0.000000 0.000000
									}
								}
							}
						}
					}
				}
			}
		}
	}
	JOINT Hips_LeftUpLeg
	{
		OFFSET 0.000000 0.000000 0.000000
		CHANNELS 3 Zrotation Yrotation Xrotation
		JOINT LeftUpLeg
		{
			OFFSET 6.857700 -6.739601 0.312100
			CHANNELS 3 Zrotation Yrotation Xrotation
			JOINT LeftLeg
			{
				OFFSET -0.367590 -34.731552 -4.572400
				CHANNELS 3 Zrotation Yrotation Xrotation
				End Site #name: LeftFoot
				{
					OFFSET 0.367590 -34.656704 -6.067400
				}
			}
		}
	}
	JOINT Hips_RightUpLeg
	{
		OFFSET 0.000000 0.000000 0.000000
		CHANNELS 3 Zrotation Yrotation Xrotation
		JOINT RightUpLeg
		{
			OFFSET -6.876100 -6.733299 0.301000
			CHANNELS 3 Zrotation Yrotation Xrotation
			JOINT RightLeg
			{
				OFFSET 0.347353 -34.795158 -4.515900
				CHANNELS 3 Zrotation Yrotation Xrotation
				End Site #name: RightFoot
				{
					OFFSET -0.347353 -34.589367 -6.070300
				}
			}
		}
	}
}
MOTION
Frames: 7
Frame Time: 0.041667
2.876267 0.806060 -4.866418 175.391479 -7.959018 -178.317536 0.000000 -0.000000 0.000000 -6.197136 -0.959570 4.500261 0.469408 -2.070024 0.184252 0.000000 0.000000 0.000000 1.057628 -1.881847 0.804359 2.622472 -30.627567 -3.690910 0.011535 -1.671521 -1.009841 1.661843 -7.236807 0.876743 -85.591562 -23.051463 13.895265 3.430740 -17.658165 -0.066707 0.386093 -2.583599 -0.382386 16.124358 14.807410 3.775473 55.373185 9.259434 9.560154 -1.101164 50.720900 3.082774 0.000000 0.000000 0.000000 -3.266673 14.983326 -5.254263 -0.014336 -36.050090 -14.559109 0.000000 0.000000 -0.000000 -4.315702 -51.769248 -10.116316 -11.815043 -6.498952 20.541107 
2.937521 0.872318 -4.991743 175.339251 -7.051866 -178.329933 0.000000 -0.000000 0.000000 -6.443279 -0.840269 4.623946 0.466570 -1.955609 0.119644 0.000000 0.000000 0.000000 1.032232 -1.834213 0.722160 2.311163 -29.418677 -4.132117 0.009631 -1.604767 -1.021151 1.710215 -7.670590 1.016301 -85.481641 -23.134900 14.056016 3.326885 -18.868683 -0.294588 0.397084 -2.504673 -0.437541 15.778850 14.751336 3.822785 55.354127 9.207190 9.869175 -1.387860 50.344994 2.774785 0.000000 0.000000 0.000000 -3.311412 14.730229 -5.776588 -0.206225 -35.857490 -13.919527 0.000000 0.000000 -0.000000 -4.161716 -50.686663 -10.057201 -11.254196 -5.716331 20.028650 
3.000967 0.938794 -5.112651 175.238009 -6.323498 -178.329780 0.000000 -0.000000 0.000000 -6.688712 -0.683422 4.764450 0.456422 -1.835730 0.048072 0.000000 0.000000 0.000000 1.000723 -1.771155 0.635053 2.048441 -28.125246 -4.736861 0.010159 -1.521471 -1.028350 1.772013 -8.001927 1.090202 -85.274586 -23.215271 14.169037 3.268230 -20.336877 -0.523273 0.409537 -2.409138 -0.488442 15.443759 14.705339 3.874865 55.342206 9.129890 10.187657 -1.654495 49.954111 2.515910 0.000000 0.000000 0.000000 -3.354915 14.443487 -6.286065 -0.405628 -35.693211 -13.291174 0.000000 0.000000 -0.000000 -4.094329 -49.841955 -9.913398 -10.736866 -4.889049 19.518501 
3.067589 1.003338 -5.230431 175.051305 -5.887795 -178.295632 -0.000000 -0.000000 0.000000 -6.935590 -0.521148 4.939604 0.434855 -1.719433 -0.031478 0.000000 0.000000 0.000000 0.964141 -1.695724 0.546528 1.829042 -26.820033 -5.484775 0.006607 -1.423623 -1.029485 1.842853 -8.199221 1.095757 -84.998152 -23.300193 14.261839 3.308324 -21.943074 -0.636197 0.412736 -2.298759 -0.535953 15.135639 14.684099 3.912360 55.331324 9.052684 10.484181 -1.900919 49.586325 2.271282 0.000000 0.000000 -0.000000 -3.405386 14.096855 -6.785580 -0.623686 -35.551961 -12.656316 0.000000 0.000000 -0.000000 -4.089546 -49.330728 -9.694893 -10.202796 -3.898392 19.032627 
3.138453 1.064348 -5.346710 174.808134 -5.743232 -178.242195 -0.000000 -0.000000 0.000000 -7.190567 -0.337256 5.142910 0.391030 -1.598379 -0.090795 0.000000 0.000000 0.000000 0.919265 -1.621022 0.460811 1.548674 -25.561093 -6.398229 -0.003010 -1.319448 -1.022893 1.904469 -8.357586 1.096443 -84.639466 -23.417208 14.320413 3.391911 -23.730303 -0.745613 0.403102 -2.180077 -0.576442 14.837737 14.716209 3.951262 55.329849 9.012459 10.724729 -2.131422 49.345545 2.040569 0.000000 0.000000 -0.000000 -3.466174 13.716449 -7.261390 -0.856772 -35.436194 -12.022866 0.000000 0.000000 -0.000000 -4.125603 -49.300651 -9.437922 -9.732483 -2.730415 18.621227 
3.216357 1.121254 -5.461612 174.518525 -5.920415 -178.173006 -0.000000 -0.000000 0.000000 -7.463165 -0.173808 5.399211 0.323036 -1.489308 -0.122348 0.000000 0.000000 0.000000 0.869437 -1.548115 0.389461 1.399151 -24.063547 -7.499467 -0.024432 -1.211708 -1.008621 1.946163 -8.470061 1.094722 -84.273203 -23.562772 14.400888 3.499898 -25.620567 -0.867630 0.378033 -2.063135 -0.614711 14.538009 14.837069 3.995232 55.325608 9.012251 10.862105 -2.352378 49.293963 1.814141 0.000000 0.000000 -0.000000 -3.531561 13.319207 -7.709944 -1.114019 -35.357528 -11.369343 0.000000 -0.000000 -0.000000 -4.221805 -49.708674 -9.102271 -9.186660 -1.421194 18.195968 
3.303480 1.174596 -5.574221 174.188840 -6.441999 -178.083376 -0.000000 -0.000000 0.000000 -7.782851 0.010556 5.695797 0.244929 -1.387939 -0.140681 0.000000 0.000000 0.000000 0.820516 -1.482589 0.339785 1.179989 -22.577443 -8.424652 -0.051890 -1.113280 -0.983596 1.970326 -8.574350 1.103431 -83.892730 -23.695487 14.527672 3.622039 -27.600270 -0.993340 0.351584 -1.964028 -0.653207 14.242894 15.068409 4.070738 55.311993 9.066636 10.845390 -2.490942 49.416482 1.685587 0.000000 0.000000 -0.000000 -3.611686 12.917679 -8.155540 -1.407093 -35.341903 -10.641617 0.000000 -0.000000 -0.000000 -4.415330 -50.570048 -8.709513 -8.533624 -0.223713 17.814131 
